<?xml version="1.0" encoding="UTF-8" standalone="no"?>
<svg
   width="24"
   height="24"
   fill="none"
   version="1.1"
   id="svg5"
   sodipodi:docname="big-network-info-v2.svg"
   inkscape:version="1.4.2 (ebf0e940d0, 2025-05-08)"
   xml:space="preserve"
   xmlns:inkscape="http://www.inkscape.org/namespaces/inkscape"
   xmlns:sodipodi="http://sodipodi.sourceforge.net/DTD/sodipodi-0.dtd"
   xmlns="http://www.w3.org/2000/svg"
   xmlns:svg="http://www.w3.org/2000/svg"><sodipodi:namedview
     id="namedview5"
     pagecolor="#ffffff"
     bordercolor="#000000"
     borderopacity="0.25"
     inkscape:showpageshadow="2"
     inkscape:pageopacity="0.0"
     inkscape:pagecheckerboard="0"
     inkscape:deskcolor="#d1d1d1"
     inkscape:zoom="9.6041667"
     inkscape:cx="12.70282"
     inkscape:cy="10.62039"
     inkscape:window-width="1433"
     inkscape:window-height="1129"
     inkscape:window-x="0"
     inkscape:window-y="0"
     inkscape:window-maximized="0"
     inkscape:current-layer="svg5" /><defs
     id="defs2"><linearGradient
       id="a"
       x1="123.3"
       x2="8.2605"
       y1="120.17"
       y2="13.466"
       gradientTransform="matrix(0.18333,0,0,0.18333,-0.16670019,-0.16690034)"
       gradientUnits="userSpaceOnUse"><stop
         stop-color="#0257a9"
         offset="0"
         id="stop1"
         style="stop-color:#2f6294;stop-opacity:1;" /><stop
         stop-color="#4c92d6"
         offset="1"
         id="stop2"
         style="stop-color:#377cbd;stop-opacity:1;" /></linearGradient><linearGradient
       id="linearGradient31"
       x1="0.050000001"
       x2="1"
       y2="1"
       gradientTransform="matrix(22,0,0,22,-56.75,-22.125)"
       gradientUnits="userSpaceOnUse"><stop
         stop-color="#7e0000"
         offset="0.2"
         id="stop28"
         style="stop-color:#003466;stop-opacity:0.90196079;" /><stop
         stop-color="#ae0003"
         offset="0.205"
         id="stop30"
         style="stop-color:#0b5eae;stop-opacity:0.90196079;" /><stop
         stop-color="#7e0002"
         offset="1"
         id="stop31"
         style="stop-color:#003c78;stop-opacity:0.90196079;" /></linearGradient><linearGradient
       id="a-2"
       x1="123.3"
       x2="8.2605"
       y1="120.17"
       y2="13.466"
       gradientTransform="matrix(0.18333,0,0,0.18333,-0.167,-0.167)"
       gradientUnits="userSpaceOnUse"><stop
         stop-color="#0257a9"
         offset="0"
         id="stop1-9" /><stop
         stop-color="#4c92d6"
         offset="1"
         id="stop2-1" /></linearGradient><filter
       id="b"
       x="-0.069375"
       y="-0.069375"
       width="1.13875"
       height="1.13875"><feGaussianBlur
         result="coloredBlur"
         stdDeviation="2"
         id="feGaussianBlur2" /><feMerge
         id="feMerge3"><feMergeNode
           in="coloredBlur"
           id="feMergeNode2" /><feMergeNode
           in="SourceGraphic"
           id="feMergeNode3" /></feMerge></filter><linearGradient
       id="c"
       x1="51"
       x2="77"
       y1="51"
       y2="77"
       gradientTransform="matrix(1.7117,0,0,1.7117,-45.547,-45.547)"
       gradientUnits="userSpaceOnUse"><stop
         stop-color="#068fd4"
         offset="0"
         id="stop3" /><stop
         stop-color="#0891b2"
         offset="1"
         id="stop4" /></linearGradient></defs><rect
     x="1.4309998"
     y="2.1239996"
     width="21.138"
     height="19.752001"
     rx="2.7061999"
     fill="url(#a)"
     opacity=".9"
     stroke="#808080"
     stroke-opacity="0.2"
     stroke-width="0.92882"
     vector-effect="non-scaling-stroke"
     style="opacity:1;fill:url(#a);-inkscape-stroke:hairline"
     id="rect2" /><g
     id="g5"
     transform="translate(1.697266,-19.757045)"><path
       id="path74"
       style="fill:#ffffff;stroke-width:0.0597892"
       class="cls-3"
       d="m 12.651994,23.000002 c -0.0823,-1.39e-4 -0.16956,0.007 -0.26215,0.02248 -1.48157,0.247523 -1.41872,1.973072 -1.41872,1.973072 0,0 -5e-5,0.763515 0.71202,1.149751 0.5931,0.341392 0.93456,-0.02752 0.99255,-0.08553 0.058,-0.05801 1.26393,-1.567077 1.07021,1.298602 0,0 0.42391,-0.461582 0.45082,-1.561696 0.0269,-1.100115 -0.68102,-1.168239 -0.68102,-1.168239 0,0 -0.31212,-0.07836 -0.93273,0.591894 -0.62061,0.670234 -0.66367,0.64034 -0.66367,0.64034 0,0 -0.17513,0.12373 -0.19606,-0.187142 -0.0209,-0.310902 -0.0873,-1.252531 0.85973,-1.761933 0.94705,-0.5094 1.4081,0.738941 1.4081,0.738941 0,0 -0.10517,-1.648429 -1.33908,-1.650531 z m -2.6730496,0.713346 a 0.50342214,0.67142881 77.92 0 0 -0.1735,0.01964 0.50342214,0.67142881 77.92 0 0 -0.55122,0.632754 0.50342214,0.67142881 77.92 0 0 0.7618796,0.35174 0.50342214,0.67142881 77.92 0 0 0.55123,-0.632752 0.50342214,0.67142881 77.92 0 0 -0.5883896,-0.371369 z m -3.12311,0.213226 c 0,0 -0.42451,0.462084 -0.45081,1.561601 -0.0263,1.099519 0.67978,1.16473 0.67978,1.16473 0,0 0.31212,0.07769 0.93273,-0.592557 0.62061,-0.670232 0.66423,-0.639108 0.66423,-0.639108 0,0 0.17518,-0.123139 0.1955,0.187162 0.0202,0.310305 0.0879,1.255587 -0.85973,1.762597 -0.94766,0.507008 -1.40745,-0.739037 -1.40745,-0.739037 0,0 0.11957,1.874991 1.60114,1.628065 1.48157,-0.246929 1.41882,-1.972981 1.41882,-1.972981 0,0 0.002,-0.762916 -0.71268,-1.14975 -0.59311,-0.341394 -0.93397,0.02748 -0.99256,0.0861 -0.0586,0.0586 -1.26269,1.567086 -1.06897,-1.2968 z m 3.2686396,0.917371 a 0.51358673,0.51358673 0 0 0 -0.4729096,0.551033 0.50521582,0.50521582 0 0 0 0.0233,0.119533 c 0,0 0.29896,1.188566 1.9072796,1.226828 0,-5.95e-4 -0.92799,-0.662388 -0.90647,-1.424696 a 0.51358673,0.51358673 0 0 0 -0.55122,-0.472718 z" /><path
       id="path55"
       style="color:#444444;fill:#d0deec;fill-opacity:1;stroke-width:0.557114"
       class="ColorScheme-Text"
       d="m 6.890625,29.312919 c -0.3086408,0 -0.5566406,0.248006 -0.5566406,0.55664 v 5.015625 c 0,0.308642 0.2479998,0.556641 0.5566406,0.556641 H 5.7773438 v 0.556641 c 0,0.308634 0.4959989,0.55664 1.1132812,0.55664 h 6.685547 c 0.617281,0 1.115234,-0.248006 1.115234,-0.55664 v -0.556641 h -1.115234 c 0.30864,0 0.55664,-0.247999 0.55664,-0.556641 v -5.015625 c 0,-0.308634 -0.248,-0.55664 -0.55664,-0.55664 z m 0.5566406,1.115234 h 5.5722654 v 4.457031 H 7.4472656 Z m 2.7871094,3.351563 a 0.36210376,0.36210376 0 0 0 -0.3632816,0.361328 0.36210376,0.36210376 0 0 0 0.3632816,0.363281 0.36210376,0.36210376 0 0 0 0.361328,-0.363281 0.36210376,0.36210376 0 0 0 -0.361328,-0.361328 z m -1.1152346,1.662109 h 2.2285156 v 0.556641 H 9.1191404 Z m 0.396485,1.919922 v 0.789062 H 7.9394532 v 0.78711 1.576171 h 4.7265618 v -1.576171 -0.78711 h -1.576172 v -0.789062 z m -4.728516,1.576172 C 4.350655,38.937919 4,39.288575 4,39.725028 4,40.16148 4.350655,40.514091 4.7871094,40.51409 h 2.3652344 v -1.576171 z m 8.6660156,0 v 1.576171 h 2.365234 c 0.436455,0 0.787109,-0.35261 0.787109,-0.789062 0,-0.436453 -0.350654,-0.787109 -0.787109,-0.787109 z" /><path
       style="fill:none;fill-opacity:1;stroke:#d0deec;stroke-width:0.452821;stroke-linecap:round;stroke-linejoin:round;stroke-opacity:1"
       d="m 8.3907774,32.180095 a 3.169746,3.169746 0 0 1 3.6858586,0.0031"
       id="path57" /><path
       style="fill:none;fill-opacity:1;stroke:#d0deec;stroke-width:0.452821;stroke-linecap:round;stroke-linejoin:round;stroke-opacity:1"
       d="m 8.9134744,33.224623 a 2.2641043,2.2641043 0 0 1 2.6519876,0.01156"
       id="path59" /></g></svg>
