<svg xmlns="http://www.w3.org/2000/svg" xmlns:xlink="http://www.w3.org/1999/xlink" xml:space="preserve" width="24" height="24" viewBox="0 0 24 24">
    <defs>
        <linearGradient id="i" x1=".05" x2="1" y2="1" gradientTransform="matrix(22 0 0 22 -56.75 -22.125)" gradientUnits="userSpaceOnUse">
            <stop offset=".2" stop-color="#7e0000" style="stop-color:#2c2d3d;stop-opacity:1"/>
            <stop offset=".205" stop-color="#ae0003" style="stop-color:#2d85c6;stop-opacity:1"/>
            <stop offset="1" stop-color="#7e0002" style="stop-color:#04bacc;stop-opacity:1"/>
        </linearGradient>
        <linearGradient id="j" x1="123.3" x2="8.261" y1="120.17" y2="13.466" gradientTransform="translate(53.824 2.949)scale(.18333)" gradientUnits="userSpaceOnUse">
            <stop offset="0" stop-color="#0257a9"/>
            <stop offset="1" stop-color="#4c92d6"/>
        </linearGradient>
        <linearGradient xlink:href="#i" id="k" x1=".05" x2="1" y2="1" gradientTransform="matrix(22 0 0 22 0 -.003)" gradientUnits="userSpaceOnUse"/>
    </defs>
    <rect width="22" height="22" x="1" y=".997" fill="url(#j)" stroke="gray" stroke-opacity=".2" opacity=".9" rx="6.6" style="fill:url(#k);-inkscape-stroke:hairline" vector-effect="non-scaling-stroke"/>
    <path d="M14.35 4.123q-.124 0-.262.023c-1.482.248-1.42 1.973-1.42 1.973s0 .764.713 1.15c.593.342.934-.027.992-.085s1.264-1.567 1.07 1.298c0 0 .425-.462.452-1.562.026-1.1-.682-1.168-.682-1.168s-.313-.079-.934.592c-.523.565-.637.633-.66.64h-.002s-.176.124-.197-.187-.088-1.252.86-1.762c.946-.51 1.408.738 1.408.738s-.104-1.648-1.338-1.65m-2.674.715a.503.671 77.92 0 0-.174.02.503.671 77.92 0 0-.55.632.503.671 77.92 0 0 .76.352.503.671 77.92 0 0 .552-.633.503.671 77.92 0 0-.588-.371m-3.123.213s-.425.46-.451 1.56.68 1.166.68 1.166.312.077.933-.593c.504-.545.63-.628.658-.64h.006s.175-.122.195.188.088 1.255-.86 1.762c-.947.507-1.407-.738-1.407-.738s.12 1.874 1.601 1.627c1.482-.247 1.42-1.973 1.42-1.973s.002-.761-.713-1.148c-.593-.342-.935.027-.994.086S8.36 7.915 8.553 5.05m3.27.916a.514.514 0 0 0-.473.553.5.5 0 0 0 .023.119s.298 1.188 1.906 1.226c0 0-.927-.663-.906-1.426a.514.514 0 0 0-.55-.472" style="fill:#fff;"/>
    <path d="M8.744 10.693a.56.56 0 0 0-.266.074l-5.14 2.966a.56.56 0 0 0-.202.766l2.235 3.87c.155.269.495.36.764.205l4.9-2.83.484.838-2.316 4.012a.417.417 0 0 0 .722.417L12 17.416l2.076 3.595a.417.417 0 0 0 .722-.417l-2.316-4.012.485-.838 4.9 2.83c.268.155.608.064.763-.205l2.235-3.87a.56.56 0 0 0-.203-.766l-5.14-2.966a.56.56 0 0 0-.764.207l-1.6 2.77-.634 1.1-.524.907-.522-.907-.634-1.1-1.6-2.77a.56.56 0 0 0-.499-.281m-.114.885.673 1.167-1.165.671-.673-1.165Zm6.74 0 1.165.673-.673 1.165-1.165-.67zm-9.075 1.349.671 1.162 1.168-.673.67 1.165-1.164.673-.671-1.162-1.165.673.67 1.16-1.166.674-.671-1.163 1.165-.673-.674-1.163Zm11.41 0 1.167.673-.674 1.163 1.165.673-.67 1.163-1.168-.674.671-1.16-1.165-.673-.67 1.162-1.166-.673.671-1.165 1.168.673zm-7.73.98.146.255.527.91-1.165.674-.674-1.165zm4.05 0 1.163.674-.67 1.165-1.166-.673.527-.911zm-6.385 1.35.673 1.165-1.167.673-.671-1.165zm8.72 0 1.165.673-.67 1.165-1.168-.673z" style="fill:#000;fill-opacity:.7;"/>
</svg>
