<svg xmlns="http://www.w3.org/2000/svg" xmlns:xlink="http://www.w3.org/1999/xlink" xml:space="preserve" width="24" height="24" fill="none"><defs><linearGradient id="a" x1="22.188" x2="5.319" y1="23.063" y2="5.324" gradientUnits="userSpaceOnUse" spreadMethod="pad"><stop offset="0" style="stop-color:#e9e9e9;stop-opacity:1"/><stop offset=".954" style="stop-color:#e4e4e4;stop-opacity:1"/><stop offset=".954" style="stop-color:#3584e4;stop-opacity:1"/><stop offset=".954" style="stop-color:#2a6ab6;stop-opacity:1"/></linearGradient><linearGradient xlink:href="#a" id="b" x1="22.188" x2="5.319" y1="23.063" y2="5.324" gradientTransform="translate(-.964 -.964)scale(1.08032)" gradientUnits="userSpaceOnUse" spreadMethod="pad"/></defs><path d="M4.137 2.124a2.7 2.7 0 0 0-2.705 2.707v14.34c0 1.5 1.205 2.705 2.705 2.705h15.726c1.5 0 2.705-1.206 2.705-2.705V4.83a2.7 2.7 0 0 0-2.705-2.707z" style="fill:url(#b);stroke:none;stroke-width:1.44042"/><path d="M15.994 11.201H7.576c-1.264-.018-1.264 1.891 0 1.874h8.418z" style="fill:#3584e4;stroke-width:.468318"/><path d="M15.502 14.011a1.873 1.873 0 1 0 .048-3.746 1.873 1.873 0 0 0-.048 3.746M9.879 16.821a1.873 1.873 0 1 0-3.747 0 1.873 1.873 0 0 0 3.747 0" style="opacity:.2;stroke-width:.468318;fill:gray;fill-opacity:1"/><path d="M17.868 16.808a.936.936 0 0 0-.948-.924H7.565v1.874h9.355a.936.936 0 0 0 .948-.95" style="fill:#b7b7b7;fill-opacity:1;stroke-width:.468318"/><path d="M17.868 12.138a1.873 1.873 0 1 0-3.747 0 1.873 1.873 0 0 0 3.747 0M10.347 16.821a1.873 1.873 0 1 0-3.747 0 1.873 1.873 0 0 0 3.747 0" style="fill:#fff;stroke-width:.468318"/><path d="M14.351 3.243q-.123 0-.262.022c-1.482.248-1.419 1.974-1.419 1.974s0 .763.712 1.15c.593.34.935-.028.993-.086s1.264-1.567 1.07 1.298c0 0 .424-.461.45-1.561.028-1.1-.68-1.169-.68-1.169s-.312-.078-.933.592c-.62.67-.664.64-.664.64s-.175.124-.196-.187c-.02-.31-.087-1.252.86-1.761.947-.51 1.408.738 1.408.738s-.105-1.648-1.339-1.65m-2.673.713a.503.671 77.92 0 0-.173.02.503.671 77.92 0 0-.552.633.503.671 77.92 0 0 .762.351.503.671 77.92 0 0 .551-.632.503.671 77.92 0 0-.588-.372m-3.123.214s-.425.462-.45 1.561c-.027 1.1.679 1.165.679 1.165s.312.078.933-.593c.62-.67.664-.639.664-.639s.175-.123.195.187.088 1.256-.86 1.763c-.947.507-1.407-.74-1.407-.74S8.43 8.75 9.91 8.504c1.482-.247 1.42-1.973 1.42-1.973s.001-.763-.714-1.15c-.593-.341-.933.028-.992.086-.059.059-1.263 1.567-1.07-1.296m3.269.917a.514.514 0 0 0-.473.55.5.5 0 0 0 .023.12s.299 1.189 1.907 1.227c0 0-.928-.662-.906-1.424a.514.514 0 0 0-.551-.473" class="cls-3" style="fill:gray;fill-opacity:1;stroke-width:.0597892"/><path d="M19.654 14.465a1.223 1.223 0 0 0-1.222 1.222.606.606 0 0 1-.61.602.55.55 0 0 1-.283-.08l-.006-.002a1.23 1.23 0 0 0-1.67.451l-.318.522-.004.006a1.23 1.23 0 0 0 .447 1.671v.002a.61.61 0 0 1 0 1.057 1.226 1.226 0 0 0-.447 1.668v.002l.168.289h.717a1 1 0 0 1-.045-.07l-.002-.006-.303-.522a.603.603 0 0 1 .22-.828 1.228 1.228 0 0 0 0-2.123v-.002a.605.605 0 0 1-.222-.83l.319-.523.003-.006a.606.606 0 0 1 .832-.225c.179.105.383.162.59.164h.002a1.23 1.23 0 0 0 1.227-1.209v-.006a.605.605 0 0 1 .607-.61h.602a.61.61 0 0 1 .611.63v.012c.002.208.058.41.164.59a1.22 1.22 0 0 0 1.537.505v-.681a1 1 0 0 0-.17.08l-.003.002a.606.606 0 0 1-.832-.217.55.55 0 0 1-.08-.273v-.012a1.23 1.23 0 0 0-1.227-1.25zm.301 3.076a1.85 1.85 0 0 0-1.846 1.846 1.85 1.85 0 0 0 1.846 1.845 1.85 1.85 0 0 0 1.846-1.845 1.85 1.85 0 0 0-1.846-1.846m0 .615c.683 0 1.23.548 1.23 1.23 0 .684-.547 1.231-1.23 1.231s-1.23-.547-1.23-1.23.547-1.23 1.23-1.23" style="fill:#b7b7b7;stroke:none;stroke-width:1.44042;fill-opacity:1"/><path d="M17.868 16.808a.936.936 0 0 0-.948-.924h-.468a.936.936 0 0 1 .947.924.936.936 0 0 1-.947.95h.468a.936.936 0 0 0 .948-.95" style="opacity:.1;stroke-width:.468318;fill:#fff"/></svg>