<?xml version="1.0" encoding="UTF-8" standalone="no"?>
<!-- Created with Inkscape (http://www.inkscape.org/) -->

<svg
   version="1.1"
   id="svg1"
   width="24"
   height="24"
   viewBox="0 0 24 24"
   sodipodi:docname="ashy_terminal.svg"
   xml:space="preserve"
   inkscape:export-filename="ashy_terminal.svg"
   inkscape:export-xdpi="96"
   inkscape:export-ydpi="96"
   xmlns:inkscape="http://www.inkscape.org/namespaces/inkscape"
   xmlns:sodipodi="http://sodipodi.sourceforge.net/DTD/sodipodi-0.dtd"
   xmlns:xlink="http://www.w3.org/1999/xlink"
   xmlns="http://www.w3.org/2000/svg"
   xmlns:svg="http://www.w3.org/2000/svg"><defs
     id="defs1"><linearGradient
       id="linearGradient13"
       inkscape:collect="always"><stop
         style="stop-color:#1c1d25;stop-opacity:1;"
         offset="0"
         id="stop13" /><stop
         style="stop-color:#1c1d25;stop-opacity:1"
         offset="0.99989998"
         id="stop15" /><stop
         style="stop-color:#afc6e9;stop-opacity:1"
         offset="1"
         id="stop14" /></linearGradient><linearGradient
       inkscape:collect="always"
       xlink:href="#linearGradient13"
       id="linearGradient14"
       x1="18"
       y1="18"
       x2="4.0198512"
       y2="3.8411913"
       gradientUnits="userSpaceOnUse" /></defs><sodipodi:namedview
     id="namedview1"
     pagecolor="#ffffff"
     bordercolor="#000000"
     borderopacity="0.25"
     inkscape:showpageshadow="2"
     inkscape:pageopacity="0.0"
     inkscape:pagecheckerboard="0"
     inkscape:deskcolor="#d1d1d1"><inkscape:page
       x="0"
       y="0"
       inkscape:label="1"
       id="page1"
       width="24"
       height="24"
       margin="0"
       bleed="0" /></sodipodi:namedview><g
     id="g1"
     inkscape:groupmode="layer"
     inkscape:label="1"><path
       id="path3"
       d="m 5.699,0.75 h 6.602 c 2.742,0 4.949,2.207 4.949,4.949 v 6.602 c 0,2.742 -2.207,4.949 -4.949,4.949 H 5.699 C 2.957,17.25 0.75,15.043 0.75,12.301 V 5.699 C 0.75,2.957 2.957,0.75 5.699,0.75 Z"
       transform="scale(1.3333333)"
       style="fill:url(#linearGradient14);stroke:none;fill-opacity:1" /><g
       id="g3"
       transform="matrix(0.94329527,0,0,0.94329527,-7.7760466,21.639911)"
       style="fill:#afc6e9;fill-opacity:1"><path
         style="fill:#afc6e9;stroke-width:0.0053598;fill-opacity:1"
         d="m 16.853598,-3.8709281 c -1.383875,-0.309144 -2.532407,-1.213971 -3.212578,-2.530907 -0.984549,-1.906269 -0.995109,-4.1754509 -0.02822,-6.0647339 0.658296,-1.286302 1.748436,-2.20191 3.032362,-2.54688 0.517653,-0.139086 1.450027,-0.138703 1.965261,8.06e-4 0.519794,0.140745 1.190751,0.499176 1.694348,0.905138 0.60757,0.489776 0.647226,0.48056 1.938406,-0.450504 1.102824,-0.795241 2.654335,-0.778204 4.076434,0.04476 0.508178,0.294082 1.36618,1.183035 1.72457,1.786781 0.321562,0.541706 0.633303,1.404861 0.757069,2.096191 0.120072,0.6706999 0.09336,1.9393119 -0.05467,2.5966649 -0.318759,1.415472 -1.005775,2.571727 -1.955651,3.291381 -1.040685,0.788453 -2.235965,1.101927 -3.344889,0.87723 -0.48402,-0.09807 -1.202862,-0.368205 -1.202862,-0.452018 0,-0.02386 0.0938,-0.246392 0.208437,-0.494516 0.346538,-0.750038 0.258785,-1.144455 -0.319867,-1.437681 -0.911209,-0.461744 -2.416985,-0.283399 -2.939355,0.348139 -0.173567,0.209841 -0.131514,0.55342 0.135256,1.105066 0.269804,0.55792 0.281566,0.522662 -0.240799,0.721842 -0.751531,0.286562 -1.539317,0.358254 -2.23325,0.203237 z m 0.541039,-4.292528 c 1.404509,-0.806111 1.513551,-0.881233 1.513551,-1.042711 0,-0.136763 -0.09486,-0.20048 -1.536338,-1.0319679 -1.31901,-0.760842 -1.530659,-0.827453 -1.530659,-0.481732 0,0.16924 0.05874,0.212027 1.144673,0.8337459 0.62957,0.360444 1.145451,0.669794 1.146402,0.687446 9.51e-4,0.01765 -0.514152,0.329398 -1.144673,0.692771 -0.87129,0.502129 -1.151072,0.691723 -1.165862,0.790043 -0.02136,0.141989 0.08211,0.301469 0.195583,0.301469 0.03972,0 0.65951,-0.337079 1.377323,-0.749064 z m 9.612807,-0.799323 c 0.06551,-0.06551 0.119107,-0.172705 0.119107,-0.238213 0,-0.06551 -0.0536,-0.172705 -0.119107,-0.238214 -0.115034,-0.115034 -0.198511,-0.119107 -2.441687,-0.119107 -2.243177,0 -2.326653,0.0041 -2.441688,0.119107 -0.06551,0.06551 -0.119106,0.172705 -0.119106,0.238214 0,0.06551 0.0536,0.172704 0.119106,0.238213 0.115035,0.115034 0.198511,0.119107 2.441688,0.119107 2.243176,0 2.326653,-0.0041 2.441687,-0.119107 z"
         id="path2" /><path
         style="fill:#afc6e9;stroke-width:0.0053598;fill-opacity:1"
         d="m 20.21644,-1.3410445 c -3.917383,-0.298961 -7.150763,-2.394187 -8.394718,-5.439768 -0.716109,-1.753253 -0.763329,-3.4672585 -0.146672,-5.3239865 0.20865,-0.628238 0.381282,-0.939611 0.939219,-1.694054 0.649926,-0.87883 0.760139,-1.23787 0.904333,-2.946016 0.04929,-0.58387 0.118285,-1.219842 0.153328,-1.413271 0.06687,-0.369105 0.277512,-0.988262 0.336214,-0.988262 0.01888,0 0.372041,0.32917 0.784803,0.731489 0.833663,0.812569 1.202414,1.092067 1.597796,1.211059 0.315148,0.09485 0.582237,0.04923 1.282159,-0.218963 1.870553,-0.716759 4.592719,-0.699137 6.773748,0.04385 0.34392,0.11716 0.719485,0.213254 0.834589,0.213542 0.38103,9.55e-4 0.793796,-0.277255 1.704247,-1.148686 0.478257,-0.45776 0.891435,-0.832292 0.918172,-0.832292 0.07905,0 0.104498,0.14074 0.290787,1.607941 0.243063,1.914347 0.3996,2.628261 0.67902,3.096774 0.06837,0.11464 0.319027,0.477979 0.557015,0.807419 0.507418,0.702408 0.79637,1.297209 1.000221,2.058934 0.717056,2.6794055 -0.116568,5.6127225 -2.16104,7.6041615 -1.538481,1.498575 -3.795901,2.437114 -6.324252,2.629357 -0.86492,0.06576 -0.87727,0.06577 -1.728969,7.71e-4 z m 1.206667,-1.334433 c 0.107117,-0.171771 0.272975,-0.524426 0.368572,-0.783678 l 0.173813,-0.471366 0.345036,0.166072 c 0.648883,0.31232 1.228966,0.418216 2.103765,0.384051 0.628351,-0.02454 0.867807,-0.06076 1.2532,-0.189563 2.409381,-0.805236 3.961016,-3.183825 3.960059,-6.070594 -4.21e-4,-1.2669775 -0.23934,-2.3053935 -0.777197,-3.3779245 -0.938788,-1.872025 -2.451844,-2.928546 -4.319216,-3.015976 -1.065481,-0.04989 -1.779807,0.116351 -2.488809,0.579192 -0.99241,0.647852 -1.136749,0.663509 -1.87479,0.203361 -1.128463,-0.703564 -1.591513,-0.835227 -2.744704,-0.780421 -1.860609,0.08843 -3.322196,1.058077 -4.282722,2.841257 -0.841867,1.562894 -1.073434,3.7123375 -0.599886,5.5682385 0.4318,1.692283 1.465574,3.037141 2.88409,3.75197 1.243258,0.626513 2.263585,0.660109 4.049627,0.133342 l 0.476427,-0.140515 0.140699,0.434259 c 0.171258,0.528577 0.4648,1.033832 0.655818,1.128816 0.230288,0.114511 0.454547,-0.0051 0.676218,-0.360521 z"
         id="path3-3" /></g></g></svg>
