<?xml version="1.0" encoding="UTF-8" standalone="no"?>
<svg
   viewBox="0 0 24 24"
   version="1.1"
   id="svg11414"
   sodipodi:docname="big-pdf-ocr-converter.svg"
   width="24"
   height="24"
   xml:space="preserve"
   inkscape:version="1.4.2 (ebf0e940d0, 2025-05-08)"
   inkscape:export-filename="restaurar.png"
   inkscape:export-xdpi="800"
   inkscape:export-ydpi="800"
   xmlns:inkscape="http://www.inkscape.org/namespaces/inkscape"
   xmlns:sodipodi="http://sodipodi.sourceforge.net/DTD/sodipodi-0.dtd"
   xmlns:xlink="http://www.w3.org/1999/xlink"
   xmlns="http://www.w3.org/2000/svg"
   xmlns:svg="http://www.w3.org/2000/svg"><sodipodi:namedview
     id="namedview11416"
     pagecolor="#ffffff"
     bordercolor="#000000"
     borderopacity="0.25"
     inkscape:showpageshadow="2"
     inkscape:pageopacity="0.0"
     inkscape:pagecheckerboard="0"
     inkscape:deskcolor="#d1d1d1"
     showgrid="false"
     inkscape:zoom="11.313709"
     inkscape:cx="70.489704"
     inkscape:cy="33.764347"
     inkscape:window-width="2867"
     inkscape:window-height="1131"
     inkscape:window-x="0"
     inkscape:window-y="0"
     inkscape:window-maximized="1"
     inkscape:current-layer="svg11414"
     showguides="true" /><defs
     id="defs11384"><linearGradient
       id="linearGradient31"
       x1="0.050000001"
       x2="1"
       y2="1"
       gradientTransform="matrix(22,0,0,22,-56.75,-22.125)"
       gradientUnits="userSpaceOnUse"><stop
         stop-color="#7e0000"
         offset="0.2"
         id="stop28"
         style="stop-color:#d56c6f;stop-opacity:1;" /><stop
         stop-color="#ae0003"
         offset="0.205"
         id="stop30"
         style="stop-color:#ff7676;stop-opacity:1;" /><stop
         stop-color="#7e0002"
         offset="1"
         id="stop31"
         style="stop-color:#d13532;stop-opacity:1;" /></linearGradient><linearGradient
       id="linearGradient77"
       x1=".05"
       x2="1"
       y2="1"
       gradientTransform="matrix(22,0,0,22,-56.75,-22.125)"
       gradientUnits="userSpaceOnUse"><stop
         stop-color="#7e0000"
         offset="0.2"
         id="stop75"
         style="stop-color:#1a2973;stop-opacity:1;" /><stop
         stop-color="#ae0003"
         offset="0.205"
         id="stop76"
         style="stop-color:#273ead;stop-opacity:1;" /><stop
         stop-color="#7e0002"
         offset="1"
         id="stop77"
         style="stop-color:#2945c4;stop-opacity:1;" /></linearGradient><linearGradient
       id="linearGradient71"
       x1="0.050000001"
       x2="1"
       y1="0"
       y2="1"
       gradientTransform="matrix(22,0,0,22,148.25,3.3011262)"
       gradientUnits="userSpaceOnUse"
       spreadMethod="pad"><stop
         style="stop-color:#f9f9f9;stop-opacity:0.50196081;"
         offset="0.2"
         id="stop69" /><stop
         style="stop-color:#ba9060;stop-opacity:1;"
         offset="0.205"
         id="stop70" /><stop
         style="stop-color:#6a3c19;stop-opacity:1;"
         offset="1"
         id="stop71" /></linearGradient><linearGradient
       id="linearGradient67"
       x1="0.050000001"
       x2="1"
       y1="0"
       y2="1"
       gradientTransform="matrix(22,0,0,22,148.25,3.3011262)"
       gradientUnits="userSpaceOnUse"
       spreadMethod="pad"><stop
         style="stop-color:#b4f1fb;stop-opacity:1;"
         offset="0"
         id="stop65" /><stop
         style="stop-color:#80c5ef;stop-opacity:1;"
         offset="0.205"
         id="stop66" /><stop
         style="stop-color:#7668fe;stop-opacity:1;"
         offset="0.60250002"
         id="stop68" /><stop
         style="stop-color:#1d40bb;stop-opacity:1;"
         offset="1"
         id="stop67" /></linearGradient><linearGradient
       id="linearGradient64"
       x1="0.050000001"
       x2="1"
       y1="0"
       y2="1"
       gradientTransform="matrix(22,0,0,22,148.25,3.3011262)"
       gradientUnits="userSpaceOnUse"
       spreadMethod="pad"><stop
         style="stop-color:#55199d;stop-opacity:1;"
         offset="0.2"
         id="stop62" /><stop
         style="stop-color:#ba9060;stop-opacity:1;"
         offset="0.205"
         id="stop63" /><stop
         style="stop-color:#6a3c19;stop-opacity:1;"
         offset="1"
         id="stop64" /></linearGradient><linearGradient
       id="linearGradient61"
       x1="0.050000001"
       x2="1"
       y1="0"
       y2="1"
       gradientTransform="matrix(22,0,0,22,148.25,3.3011262)"
       gradientUnits="userSpaceOnUse"
       spreadMethod="pad"><stop
         style="stop-color:#43127b;stop-opacity:1;"
         offset="0.2"
         id="stop59" /><stop
         style="stop-color:#ba9060;stop-opacity:1;"
         offset="0.205"
         id="stop60" /><stop
         style="stop-color:#6a3c19;stop-opacity:1;"
         offset="1"
         id="stop61" /></linearGradient><linearGradient
       id="linearGradient58"
       x1=".05"
       x2="1"
       y1="0"
       y2="1"
       gradientTransform="matrix(22,0,0,22,148.25,3.3011262)"
       gradientUnits="userSpaceOnUse"><stop
         style="stop-color:#411178;stop-opacity:1;"
         offset="0.2"
         id="stop56" /><stop
         style="stop-color:#ba9060;stop-opacity:1;"
         offset="0.205"
         id="stop57" /><stop
         style="stop-color:#6a3c19;stop-opacity:1;"
         offset="1"
         id="stop58" /></linearGradient><linearGradient
       id="linearGradient53"
       x1=".05"
       x2="1"
       y2="1"
       gradientTransform="matrix(22,0,0,22,-55.75,5.375)"
       gradientUnits="userSpaceOnUse"><stop
         stop-color="#2191d3"
         offset=".2"
         id="stop51" /><stop
         stop-color="#2ac2f0"
         offset=".205"
         id="stop52" /><stop
         stop-color="#0948bd"
         offset="1"
         id="stop53"
         style="stop-color:#fafafa;stop-opacity:0.80000001;" /></linearGradient><style
       id="style11382">.cls-1{fill:#069;}.cls-2{fill:#2991c9;}.cls-3{fill:#fff;}.cls-4{fill:#002a44;}.cls-5{fill:#3380cc;}.cls-6{fill:#cc5e55;}</style><radialGradient
       id="paint0_radial_29_23"
       cx="0"
       cy="0"
       r="1"
       gradientUnits="userSpaceOnUse"
       gradientTransform="matrix(0,22,-22,0,11.999988,1.0000149)"><stop
         stop-color="#8FC8FF"
         id="stop11537" /><stop
         offset="1"
         stop-color="#0056A8"
         id="stop11539"
         style="stop-color:#006699;stop-opacity:1;" /></radialGradient><radialGradient
       id="paint0_radial_1_40"
       cx="0"
       cy="0"
       r="1"
       gradientUnits="userSpaceOnUse"
       gradientTransform="matrix(0,24,-24,0,-2.29062,44.73684)"><stop
         stop-color="#C2E5FF"
         id="stop11601" /><stop
         offset="1"
         stop-color="#3276AA"
         id="stop11603" /></radialGradient><radialGradient
       fx="0"
       fy="0"
       cx="0"
       cy="0"
       r="1"
       gradientUnits="userSpaceOnUse"
       gradientTransform="matrix(0,16.5,-16.5,0,8.999991,0.750011)"
       spreadMethod="pad"
       id="radialGradient16463"><stop
         style="stop-opacity:1;stop-color:#8fc8ff"
         offset="0"
         id="stop16459" /><stop
         style="stop-opacity:1;stop-color:#006699"
         offset="1"
         id="stop16461" /></radialGradient><clipPath
       clipPathUnits="userSpaceOnUse"
       id="clipPath16473"><path
         d="M 0,0 H 151 V 116 H 0 Z"
         id="path16471" /></clipPath><radialGradient
       fx="0"
       fy="0"
       cx="0"
       cy="0"
       r="1"
       gradientUnits="userSpaceOnUse"
       gradientTransform="matrix(0,16.5,-16.5,0,8.999991,0.750011)"
       spreadMethod="pad"
       id="radialGradient16463-5"><stop
         style="stop-opacity:1;stop-color:#8fc8ff"
         offset="0"
         id="stop16459-9" /><stop
         style="stop-opacity:1;stop-color:#006699"
         offset="1"
         id="stop16461-4" /></radialGradient><clipPath
       clipPathUnits="userSpaceOnUse"
       id="clipPath16473-9"><path
         d="M 0,0 H 151 V 116 H 0 Z"
         id="path16471-0" /></clipPath><style
       id="style1">.cls-1{fill:#16171c;stroke:#000;stroke-miterlimit:10;}.cls-2{fill:#2c2d3d;}.cls-3{fill:url(#linear-gradient);}.cls-4{fill:url(#linear-gradient-2);}.cls-5{fill:url(#linear-gradient-3);}</style><linearGradient
       id="linear-gradient"
       x1="70.74"
       y1="207.69"
       x2="304.39"
       y2="456.44"
       gradientTransform="matrix(1, 0, 0, -1, 16.81, 529.63)"
       gradientUnits="userSpaceOnUse"><stop
         offset="0"
         stop-color="#2d85c6"
         id="stop1" /><stop
         offset="1"
         stop-color="#04bacc"
         id="stop2" /></linearGradient><linearGradient
       id="linear-gradient-2"
       x1="146.39"
       y1="136.63"
       x2="380.04"
       y2="385.38"
       xlink:href="#linear-gradient" /><linearGradient
       id="linear-gradient-3"
       x1="127.32"
       y1="154.54"
       x2="360.97"
       y2="403.29"
       xlink:href="#linear-gradient" /><linearGradient
       id="a"
       x1="123.3"
       x2="8.2605"
       y1="120.17"
       y2="13.466"
       gradientTransform="matrix(0.18333,0,0,0.18333,53.823536,2.948851)"
       gradientUnits="userSpaceOnUse"><stop
         stop-color="#0257a9"
         offset="0"
         id="stop1-3" /><stop
         stop-color="#4c92d6"
         offset="1"
         id="stop2-6" /></linearGradient><style
       id="style2">.cls-1{stroke:#333;stroke-miterlimit:10;stroke-width:6px;fill:url(#linear-gradient);}.cls-2{fill:url(#linear-gradient-2);}.cls-3{fill:#0d0e0e;}.cls-4{opacity:0.7;isolation:isolate;fill:url(#linear-gradient-3);}</style><linearGradient
       id="linear-gradient-35"
       x1="100.05"
       y1="164.11"
       x2="100.05"
       y2="3.23"
       gradientUnits="userSpaceOnUse"><stop
         offset="0"
         id="stop4-6" /><stop
         offset="0.6"
         stop-color="#fff"
         id="stop6" /><stop
         offset="0.66"
         stop-color="#fff"
         id="stop8" /><stop
         offset="0.7"
         stop-color="#fafafa"
         id="stop10" /><stop
         offset="0.74"
         stop-color="#ececec"
         id="stop12" /><stop
         offset="0.78"
         stop-color="#d5d5d5"
         id="stop14" /><stop
         offset="0.83"
         stop-color="#b4b4b4"
         id="stop16" /><stop
         offset="0.88"
         stop-color="#8a8a8a"
         id="stop18" /><stop
         offset="0.93"
         stop-color="#575757"
         id="stop20" /><stop
         offset="0.98"
         stop-color="#1b1b1b"
         id="stop22" /><stop
         offset="1"
         id="stop24" /></linearGradient><linearGradient
       id="linear-gradient-2-2"
       x1="106.56"
       y1="83.76"
       x2="195.62"
       y2="83.76"
       gradientUnits="userSpaceOnUse"><stop
         offset="0"
         id="stop27" /><stop
         offset="1"
         stop-color="#fff"
         id="stop29" /></linearGradient><linearGradient
       id="linear-gradient-3-9"
       x1="100.54"
       y1="86.27"
       x2="100.54"
       y2="5.83"
       gradientUnits="userSpaceOnUse"><stop
         offset="0"
         stop-color="#fff"
         stop-opacity="0.6"
         id="stop32" /><stop
         offset="1"
         stop-color="#fff"
         stop-opacity="0"
         id="stop34" /></linearGradient><linearGradient
       id="a-1"
       x1=".05"
       x2="1"
       y2="1"
       gradientTransform="matrix(22,0,0,22,25.25,-0.62500002)"
       gradientUnits="userSpaceOnUse"><stop
         stop-color="#c0d1cd"
         offset="0.2"
         id="stop1-2"
         style="stop-color:#4389d0;stop-opacity:0.90196079;" /><stop
         offset=".205"
         id="stop2-7" /><stop
         stop-color="#454545"
         offset="1"
         id="stop3-0"
         style="stop-color:#3c62df;stop-opacity:1;" /></linearGradient><linearGradient
       id="linearGradient9"
       x1="2.0339"
       x2="21.999"
       y1="17.905"
       y2="17.905"
       gradientTransform="translate(25.25,-0.55472202)"
       gradientUnits="userSpaceOnUse"><stop
         stop-color="#c0d1cd"
         offset="0"
         id="stop4-9" /><stop
         stop-color="#f5f6ec"
         offset="1"
         id="stop5" /></linearGradient><linearGradient
       id="a-2"
       x1=".05"
       x2="1"
       y2="1"
       gradientTransform="matrix(22,0,0,22,-55.75,5.375)"
       gradientUnits="userSpaceOnUse"><stop
         stop-color="#2191d3"
         offset=".2"
         id="stop8-8" /><stop
         stop-color="#2ac2f0"
         offset=".205"
         id="stop9" /><stop
         stop-color="#0948bd"
         offset="1"
         id="stop10-9" /></linearGradient><linearGradient
       id="a-3"
       x1=".05"
       x2="1"
       y2="1"
       gradientTransform="matrix(22,0,0,22,-56.75,-22.125)"
       gradientUnits="userSpaceOnUse"><stop
         stop-color="#7e0000"
         offset=".2"
         id="stop2-61" /><stop
         stop-color="#ae0003"
         offset=".205"
         id="stop3-2" /><stop
         stop-color="#7e0002"
         offset="1"
         id="stop4-93" /></linearGradient><linearGradient
       id="a-30"
       x1=".05"
       x2="1"
       y1="0"
       y2="1"
       gradientTransform="matrix(22,0,0,22,148.25,3.3011262)"
       gradientUnits="userSpaceOnUse"
       xlink:href="#linearGradient64"><stop
         style="stop-color:#f25edf;stop-opacity:1;"
         offset="0"
         id="stop1-30" /><stop
         style="stop-color:#8c2df9;stop-opacity:1;"
         offset="0.38993961"
         id="stop2-9" /><stop
         style="stop-color:#43127b;stop-opacity:1;"
         offset="1"
         id="stop3-25" /></linearGradient><linearGradient
       id="linearGradient148"
       x1="93.251526"
       y1="104.3218"
       x2="-67.822433"
       y2="-104.28946"
       spreadMethod="pad"
       gradientUnits="userSpaceOnUse"
       gradientTransform="matrix(0.03254379,0,0,0.03260219,4.2278406,4.232806)"><stop
         id="stop146"
         offset="0"
         stop-color="#093b8e"
         style="stop-color:#300b58;stop-opacity:1;" /><stop
         id="stop147"
         offset="0.5"
         stop-color="#093b8e"
         style="stop-color:#872bfa;stop-opacity:1;" /><stop
         id="stop148"
         offset="1"
         stop-color="#71f6b8"
         style="stop-color:#ff64dc;stop-opacity:1;" /></linearGradient><linearGradient
       id="linearGradient191"
       x1="93.251526"
       y1="104.3218"
       x2="-67.822433"
       y2="-104.28946"
       spreadMethod="pad"
       gradientUnits="userSpaceOnUse"
       gradientTransform="matrix(0.03254379,0,0,0.03260219,4.2278406,4.232806)"><stop
         id="stop189"
         offset="0"
         stop-color="#093b8e"
         style="stop-color:#0938ac;stop-opacity:1;" /><stop
         id="stop190"
         offset="0.5"
         stop-color="#093b8e"
         style="stop-color:#7562ff;stop-opacity:1;" /><stop
         id="stop191"
         offset="1"
         stop-color="#71f6b8"
         style="stop-color:#86fae6;stop-opacity:1;" /></linearGradient><linearGradient
       id="a-0"
       x1=".05"
       x2="1"
       y2="1"
       gradientTransform="matrix(22,0,0,22,224,4)"
       gradientUnits="userSpaceOnUse"><stop
         stop-color="#8f8f8f"
         offset=".2"
         id="stop1-5" /><stop
         stop-color="#fff"
         offset=".205"
         id="stop2-94" /><stop
         stop-color="#dadada"
         offset="1"
         id="stop3-6" /></linearGradient><linearGradient
       inkscape:collect="always"
       xlink:href="#linearGradient31"
       id="linearGradient73"
       gradientUnits="userSpaceOnUse"
       gradientTransform="matrix(22,0,0,22,-10e-6,-0.0079859)"
       x1="0.050000001"
       x2="1"
       y2="1" /><linearGradient
       id="linearGradient77-2"
       x1="0.050000001"
       x2="1"
       y2="1"
       gradientTransform="matrix(22,0,0,22,-56.75,-22.125)"
       gradientUnits="userSpaceOnUse"><stop
         stop-color="#7e0000"
         offset="0.2"
         id="stop75-4"
         style="stop-color:#c64c51;stop-opacity:1;" /><stop
         stop-color="#ae0003"
         offset="0.205"
         id="stop76-7"
         style="stop-color:#b4262c;stop-opacity:1;" /><stop
         stop-color="#7e0002"
         offset="1"
         id="stop77-7"
         style="stop-color:#7e0000;stop-opacity:0.90196079;" /></linearGradient><style
       id="current-color-scheme"
       type="text/css">
   .ColorScheme-Text { color:#dfdfdf; } .ColorScheme-Highlight { color:#4285f4; } .ColorScheme-NeutralText { color:#ff9800; } .ColorScheme-PositiveText { color:#4caf50; } .ColorScheme-NegativeText { color:#f44336; }
  </style><style
       id="current-color-scheme-3"
       type="text/css">
   .ColorScheme-Text { color:#dfdfdf; } .ColorScheme-Highlight { color:#4285f4; } .ColorScheme-NeutralText { color:#ff9800; } .ColorScheme-PositiveText { color:#4caf50; } .ColorScheme-NegativeText { color:#f44336; }
  </style><style
       id="current-color-scheme-7"
       type="text/css">
   .ColorScheme-Text { color:#dfdfdf; } .ColorScheme-Highlight { color:#4285f4; } .ColorScheme-NeutralText { color:#ff9800; } .ColorScheme-PositiveText { color:#4caf50; } .ColorScheme-NegativeText { color:#f44336; }
  </style><style
       id="current-color-scheme-35"
       type="text/css">
   .ColorScheme-Text { color:#dfdfdf; } .ColorScheme-Highlight { color:#4285f4; } .ColorScheme-NeutralText { color:#ff9800; } .ColorScheme-PositiveText { color:#4caf50; } .ColorScheme-NegativeText { color:#f44336; }
  </style><style
       id="current-color-scheme-1"
       type="text/css">
   .ColorScheme-Text { color:#dfdfdf; } .ColorScheme-Highlight { color:#4285f4; } .ColorScheme-NeutralText { color:#ff9800; } .ColorScheme-PositiveText { color:#4caf50; } .ColorScheme-NegativeText { color:#f44336; }
  </style><style
       id="current-color-scheme-70"
       type="text/css">
   .ColorScheme-Text { color:#dfdfdf; } .ColorScheme-Highlight { color:#4285f4; } .ColorScheme-NeutralText { color:#ff9800; } .ColorScheme-PositiveText { color:#4caf50; } .ColorScheme-NegativeText { color:#f44336; }
  </style><linearGradient
       id="linearGradient77-6"
       x1=".05"
       x2="1"
       y2="1"
       gradientTransform="matrix(22,0,0,22,-56.75,-22.125)"
       gradientUnits="userSpaceOnUse"><stop
         stop-color="#7e0000"
         offset="0.2"
         id="stop75-1"
         style="stop-color:#1a2973;stop-opacity:1;" /><stop
         stop-color="#ae0003"
         offset="0.205"
         id="stop76-8"
         style="stop-color:#273ead;stop-opacity:1;" /><stop
         stop-color="#7e0002"
         offset="1"
         id="stop77-79"
         style="stop-color:#2945c4;stop-opacity:1;" /></linearGradient><linearGradient
       id="linearGradient53-9"
       x1=".05"
       x2="1"
       y2="1"
       gradientTransform="matrix(22,0,0,22,-55.75,5.375)"
       gradientUnits="userSpaceOnUse"><stop
         stop-color="#2191d3"
         offset=".2"
         id="stop51-3" /><stop
         stop-color="#2ac2f0"
         offset=".205"
         id="stop52-1" /><stop
         stop-color="#0948bd"
         offset="1"
         id="stop53-9"
         style="stop-color:#fafafa;stop-opacity:0.80000001;" /></linearGradient><style
       id="style11382-4">.cls-1{fill:#069;}.cls-2{fill:#2991c9;}.cls-3{fill:#fff;}.cls-4{fill:#002a44;}.cls-5{fill:#3380cc;}.cls-6{fill:#cc5e55;}</style><radialGradient
       id="paint0_radial_29_23-7"
       cx="0"
       cy="0"
       r="1"
       gradientUnits="userSpaceOnUse"
       gradientTransform="matrix(0,22,-22,0,11.999988,1.0000149)"><stop
         stop-color="#8FC8FF"
         id="stop11537-8" /><stop
         offset="1"
         stop-color="#0056A8"
         id="stop11539-4"
         style="stop-color:#006699;stop-opacity:1;" /></radialGradient><radialGradient
       id="paint0_radial_1_40-5"
       cx="0"
       cy="0"
       r="1"
       gradientUnits="userSpaceOnUse"
       gradientTransform="matrix(0,24,-24,0,-2.29062,44.73684)"><stop
         stop-color="#C2E5FF"
         id="stop11601-0" /><stop
         offset="1"
         stop-color="#3276AA"
         id="stop11603-3" /></radialGradient><radialGradient
       fx="0"
       fy="0"
       cx="0"
       cy="0"
       r="1"
       gradientUnits="userSpaceOnUse"
       gradientTransform="matrix(0,16.5,-16.5,0,8.999991,0.750011)"
       spreadMethod="pad"
       id="radialGradient16463-6"><stop
         style="stop-opacity:1;stop-color:#8fc8ff"
         offset="0"
         id="stop16459-1" /><stop
         style="stop-opacity:1;stop-color:#006699"
         offset="1"
         id="stop16461-0" /></radialGradient><clipPath
       clipPathUnits="userSpaceOnUse"
       id="clipPath16473-6"><path
         d="M 0,0 H 151 V 116 H 0 Z"
         id="path16471-3" /></clipPath><radialGradient
       fx="0"
       fy="0"
       cx="0"
       cy="0"
       r="1"
       gradientUnits="userSpaceOnUse"
       gradientTransform="matrix(0,16.5,-16.5,0,8.999991,0.750011)"
       spreadMethod="pad"
       id="radialGradient16463-5-2"><stop
         style="stop-opacity:1;stop-color:#8fc8ff"
         offset="0"
         id="stop16459-9-0" /><stop
         style="stop-opacity:1;stop-color:#006699"
         offset="1"
         id="stop16461-4-6" /></radialGradient><clipPath
       clipPathUnits="userSpaceOnUse"
       id="clipPath16473-9-1"><path
         d="M 0,0 H 151 V 116 H 0 Z"
         id="path16471-0-5" /></clipPath><style
       id="style1-5">.cls-1{fill:#16171c;stroke:#000;stroke-miterlimit:10;}.cls-2{fill:#2c2d3d;}.cls-3{fill:url(#linear-gradient);}.cls-4{fill:url(#linear-gradient-2);}.cls-5{fill:url(#linear-gradient-3);}</style><style
       id="style2-9">.cls-1{stroke:#333;stroke-miterlimit:10;stroke-width:6px;fill:url(#linear-gradient);}.cls-2{fill:url(#linear-gradient-2);}.cls-3{fill:#0d0e0e;}.cls-4{opacity:0.7;isolation:isolate;fill:url(#linear-gradient-3);}</style><linearGradient
       id="a-1-8"
       x1=".05"
       x2="1"
       y2="1"
       gradientTransform="matrix(22,0,0,22,25.25,-0.62500002)"
       gradientUnits="userSpaceOnUse"><stop
         stop-color="#c0d1cd"
         offset="0.2"
         id="stop1-2-8"
         style="stop-color:#4389d0;stop-opacity:0.90196079;" /><stop
         offset=".205"
         id="stop2-7-4" /><stop
         stop-color="#454545"
         offset="1"
         id="stop3-0-3"
         style="stop-color:#3c62df;stop-opacity:1;" /></linearGradient><linearGradient
       id="a-2-9"
       x1=".05"
       x2="1"
       y2="1"
       gradientTransform="matrix(22,0,0,22,-55.75,5.375)"
       gradientUnits="userSpaceOnUse"><stop
         stop-color="#2191d3"
         offset=".2"
         id="stop8-8-2" /><stop
         stop-color="#2ac2f0"
         offset=".205"
         id="stop9-0" /><stop
         stop-color="#0948bd"
         offset="1"
         id="stop10-9-6" /></linearGradient><linearGradient
       id="a-3-8"
       x1=".05"
       x2="1"
       y2="1"
       gradientTransform="matrix(22,0,0,22,-56.75,-22.125)"
       gradientUnits="userSpaceOnUse"><stop
         stop-color="#7e0000"
         offset=".2"
         id="stop2-61-9" /><stop
         stop-color="#ae0003"
         offset=".205"
         id="stop3-2-2" /><stop
         stop-color="#7e0002"
         offset="1"
         id="stop4-93-6" /></linearGradient><linearGradient
       id="a-0-7"
       x1=".05"
       x2="1"
       y2="1"
       gradientTransform="matrix(22,0,0,22,224,4)"
       gradientUnits="userSpaceOnUse"><stop
         stop-color="#8f8f8f"
         offset=".2"
         id="stop1-5-2" /><stop
         stop-color="#fff"
         offset=".205"
         id="stop2-94-7" /><stop
         stop-color="#dadada"
         offset="1"
         id="stop3-6-2" /></linearGradient><linearGradient
       id="linearGradient77-2-6"
       x1="0.050000001"
       x2="1"
       y2="1"
       gradientTransform="matrix(22,0,0,22,-56.75,-22.125)"
       gradientUnits="userSpaceOnUse"><stop
         stop-color="#7e0000"
         offset="0.2"
         id="stop75-4-1"
         style="stop-color:#1a2973;stop-opacity:1;" /><stop
         stop-color="#ae0003"
         offset="0.205"
         id="stop76-7-0"
         style="stop-color:#273ead;stop-opacity:1;" /><stop
         stop-color="#7e0002"
         offset="1"
         id="stop77-7-6"
         style="stop-color:#2945c4;stop-opacity:1;" /></linearGradient><linearGradient
       id="linearGradient77-0"
       x1=".05"
       x2="1"
       y2="1"
       gradientTransform="matrix(22,0,0,22,-56.75,-22.125)"
       gradientUnits="userSpaceOnUse"><stop
         stop-color="#7e0000"
         offset="0.2"
         id="stop75-9"
         style="stop-color:#1a2973;stop-opacity:1;" /><stop
         stop-color="#ae0003"
         offset="0.205"
         id="stop76-1"
         style="stop-color:#273ead;stop-opacity:1;" /><stop
         stop-color="#7e0002"
         offset="1"
         id="stop77-77"
         style="stop-color:#2945c4;stop-opacity:1;" /></linearGradient><linearGradient
       id="linearGradient53-1"
       x1=".05"
       x2="1"
       y2="1"
       gradientTransform="matrix(22,0,0,22,-55.75,5.375)"
       gradientUnits="userSpaceOnUse"><stop
         stop-color="#2191d3"
         offset=".2"
         id="stop51-2" /><stop
         stop-color="#2ac2f0"
         offset=".205"
         id="stop52-9" /><stop
         stop-color="#0948bd"
         offset="1"
         id="stop53-3"
         style="stop-color:#fafafa;stop-opacity:0.80000001;" /></linearGradient><style
       id="style11382-9">.cls-1{fill:#069;}.cls-2{fill:#2991c9;}.cls-3{fill:#fff;}.cls-4{fill:#002a44;}.cls-5{fill:#3380cc;}.cls-6{fill:#cc5e55;}</style><radialGradient
       id="paint0_radial_29_23-0"
       cx="0"
       cy="0"
       r="1"
       gradientUnits="userSpaceOnUse"
       gradientTransform="matrix(0,22,-22,0,11.999988,1.0000149)"><stop
         stop-color="#8FC8FF"
         id="stop11537-88" /><stop
         offset="1"
         stop-color="#0056A8"
         id="stop11539-5"
         style="stop-color:#006699;stop-opacity:1;" /></radialGradient><radialGradient
       id="paint0_radial_1_40-0"
       cx="0"
       cy="0"
       r="1"
       gradientUnits="userSpaceOnUse"
       gradientTransform="matrix(0,24,-24,0,-2.29062,44.73684)"><stop
         stop-color="#C2E5FF"
         id="stop11601-9" /><stop
         offset="1"
         stop-color="#3276AA"
         id="stop11603-6" /></radialGradient><radialGradient
       fx="0"
       fy="0"
       cx="0"
       cy="0"
       r="1"
       gradientUnits="userSpaceOnUse"
       gradientTransform="matrix(0,16.5,-16.5,0,8.999991,0.750011)"
       spreadMethod="pad"
       id="radialGradient16463-3"><stop
         style="stop-opacity:1;stop-color:#8fc8ff"
         offset="0"
         id="stop16459-8" /><stop
         style="stop-opacity:1;stop-color:#006699"
         offset="1"
         id="stop16461-5" /></radialGradient><clipPath
       clipPathUnits="userSpaceOnUse"
       id="clipPath16473-61"><path
         d="M 0,0 H 151 V 116 H 0 Z"
         id="path16471-1" /></clipPath><radialGradient
       fx="0"
       fy="0"
       cx="0"
       cy="0"
       r="1"
       gradientUnits="userSpaceOnUse"
       gradientTransform="matrix(0,16.5,-16.5,0,8.999991,0.750011)"
       spreadMethod="pad"
       id="radialGradient16463-5-5"><stop
         style="stop-opacity:1;stop-color:#8fc8ff"
         offset="0"
         id="stop16459-9-9" /><stop
         style="stop-opacity:1;stop-color:#006699"
         offset="1"
         id="stop16461-4-8" /></radialGradient><clipPath
       clipPathUnits="userSpaceOnUse"
       id="clipPath16473-9-4"><path
         d="M 0,0 H 151 V 116 H 0 Z"
         id="path16471-0-8" /></clipPath><style
       id="style1-1">.cls-1{fill:#16171c;stroke:#000;stroke-miterlimit:10;}.cls-2{fill:#2c2d3d;}.cls-3{fill:url(#linear-gradient);}.cls-4{fill:url(#linear-gradient-2);}.cls-5{fill:url(#linear-gradient-3);}</style><style
       id="style2-4">.cls-1{stroke:#333;stroke-miterlimit:10;stroke-width:6px;fill:url(#linear-gradient);}.cls-2{fill:url(#linear-gradient-2);}.cls-3{fill:#0d0e0e;}.cls-4{opacity:0.7;isolation:isolate;fill:url(#linear-gradient-3);}</style><linearGradient
       id="a-1-7"
       x1=".05"
       x2="1"
       y2="1"
       gradientTransform="matrix(22,0,0,22,25.25,-0.62500002)"
       gradientUnits="userSpaceOnUse"><stop
         stop-color="#c0d1cd"
         offset="0.2"
         id="stop1-2-4"
         style="stop-color:#4389d0;stop-opacity:0.90196079;" /><stop
         offset=".205"
         id="stop2-7-1" /><stop
         stop-color="#454545"
         offset="1"
         id="stop3-0-8"
         style="stop-color:#3c62df;stop-opacity:1;" /></linearGradient><linearGradient
       id="a-2-7"
       x1=".05"
       x2="1"
       y2="1"
       gradientTransform="matrix(22,0,0,22,-55.75,5.375)"
       gradientUnits="userSpaceOnUse"><stop
         stop-color="#2191d3"
         offset=".2"
         id="stop8-8-5" /><stop
         stop-color="#2ac2f0"
         offset=".205"
         id="stop9-3" /><stop
         stop-color="#0948bd"
         offset="1"
         id="stop10-9-8" /></linearGradient><linearGradient
       id="a-3-83"
       x1=".05"
       x2="1"
       y2="1"
       gradientTransform="matrix(22,0,0,22,-56.75,-22.125)"
       gradientUnits="userSpaceOnUse"><stop
         stop-color="#7e0000"
         offset=".2"
         id="stop2-61-1" /><stop
         stop-color="#ae0003"
         offset=".205"
         id="stop3-2-8" /><stop
         stop-color="#7e0002"
         offset="1"
         id="stop4-93-9" /></linearGradient><linearGradient
       id="a-0-8"
       x1=".05"
       x2="1"
       y2="1"
       gradientTransform="matrix(22,0,0,22,224,4)"
       gradientUnits="userSpaceOnUse"><stop
         stop-color="#8f8f8f"
         offset=".2"
         id="stop1-5-8" /><stop
         stop-color="#fff"
         offset=".205"
         id="stop2-94-8" /><stop
         stop-color="#dadada"
         offset="1"
         id="stop3-6-9" /></linearGradient><style
       id="current-color-scheme-30"
       type="text/css">
   .ColorScheme-Text { color:#444444; } .ColorScheme-Highlight { color:#4285f4; } .ColorScheme-NeutralText { color:#ff9800; } .ColorScheme-PositiveText { color:#4caf50; } .ColorScheme-NegativeText { color:#f44336; }
  </style><style
       id="current-color-scheme-309"
       type="text/css">
   .ColorScheme-Text { color:#444444; } .ColorScheme-Highlight { color:#4285f4; } .ColorScheme-NeutralText { color:#ff9800; } .ColorScheme-PositiveText { color:#4caf50; } .ColorScheme-NegativeText { color:#f44336; }
  </style></defs><rect
     x="1"
     y="0.99201387"
     width="22"
     height="22"
     rx="6.5999999"
     fill="url(#a)"
     opacity="0.9"
     stroke="#808080"
     stroke-opacity="0.2"
     vector-effect="non-scaling-stroke"
     style="fill:url(#linearGradient73);-inkscape-stroke:hairline"
     id="rect73" /><path
     id="path74"
     style="fill:#ffffff;stroke-width:0.0597892"
     class="cls-3"
     d="m 14.34926,4.0562241 c -0.0823,-1.39e-4 -0.16956,0.007 -0.26215,0.02248 -1.48157,0.247523 -1.41872,1.973072 -1.41872,1.973072 0,0 -5e-5,0.763515 0.71202,1.149751 0.5931,0.341392 0.93456,-0.02752 0.99255,-0.08553 0.058,-0.05801 1.26393,-1.567077 1.07021,1.298602 0,0 0.42391,-0.461582 0.45082,-1.561696 0.0269,-1.100115 -0.68102,-1.168239 -0.68102,-1.168239 0,0 -0.31212,-0.07836 -0.93273,0.591894 -0.62061,0.670234 -0.66367,0.64034 -0.66367,0.64034 0,0 -0.17513,0.12373 -0.19606,-0.187142 -0.0209,-0.310902 -0.0873,-1.252531 0.85973,-1.761933 0.94705,-0.5094 1.4081,0.738941 1.4081,0.738941 0,0 -0.10517,-1.648429 -1.33908,-1.650531 z m -2.67305,0.713346 a 0.50342214,0.67142881 77.92 0 0 -0.1735,0.01964 0.50342214,0.67142881 77.92 0 0 -0.55122,0.632754 0.50342214,0.67142881 77.92 0 0 0.76188,0.35174 0.50342214,0.67142881 77.92 0 0 0.55123,-0.632752 0.50342214,0.67142881 77.92 0 0 -0.58839,-0.371369 z M 8.5531,4.9827961 c 0,0 -0.42451,0.462084 -0.45081,1.561601 -0.0263,1.099519 0.67978,1.16473 0.67978,1.16473 0,0 0.31212,0.07769 0.93273,-0.592557 0.62061,-0.670232 0.66423,-0.639108 0.66423,-0.639108 0,0 0.17518,-0.123139 0.1955,0.187162 0.0202,0.310305 0.0879,1.255587 -0.85973,1.762597 -0.94766,0.507008 -1.40745,-0.739037 -1.40745,-0.739037 0,0 0.11957,1.874991 1.60114,1.628065 1.48157,-0.246929 1.41882,-1.972981 1.41882,-1.972981 0,0 0.002,-0.762916 -0.71268,-1.14975 -0.59311,-0.341394 -0.93397,0.02748 -0.99256,0.0861 -0.0586,0.0586 -1.26269,1.567086 -1.06897,-1.2968 z m 3.26864,0.917371 a 0.51358673,0.51358673 0 0 0 -0.47291,0.551033 0.50521582,0.50521582 0 0 0 0.0233,0.119533 c 0,0 0.29896,1.188566 1.90728,1.226828 0,-5.95e-4 -0.92799,-0.662388 -0.90647,-1.424696 a 0.51358673,0.51358673 0 0 0 -0.55122,-0.472718 z" /><path
     id="path25"
     style="fill:#ffffff;fill-opacity:0.8;stroke-width:0.71719;stroke-linecap:round;stroke-linejoin:round;paint-order:markers stroke fill"
     class="ColorScheme-Text"
     d="m 8.196206,10.726716 c -0.3973225,0 -0.7165199,0.319198 -0.7165199,0.716521 v 8.606257 c 0,0.397323 0.3191974,0.718527 0.7165199,0.718527 h 3.785308 c -1.209292,-1.332838 -1.176,-3.494338 0.212747,-4.748696 0.5774,-0.521522 1.266847,-0.761518 2.025121,-0.850993 0.109839,-0.01303 0.22108,-0.01991 0.329157,-0.02006 0.551978,-8.84e-4 1.076937,0.160132 1.537406,0.43553 V 13.5948 L 13.21786,10.726717 Z m 1.928783,2.111425 c 0.239655,-3e-6 0.423604,0.04341 0.551937,0.128452 0.128333,0.0835 0.192677,0.21972 0.192677,0.411444 0,0.193272 -0.06481,0.334896 -0.194683,0.421483 -0.12988,0.08506 -0.314751,0.126444 -0.555955,0.126444 h -0.114401 v 0.537893 H 9.643293 v -1.583569 c 0.078852,-0.01547 0.1627541,-0.02595 0.2508815,-0.03212 0.088132,-0.0063 0.1643265,-0.01018 0.2308145,-0.01018 z m 1.505291,0 c 0.137608,-2e-6 0.261986,0.01524 0.373313,0.04616 0.112868,0.03093 0.21062,0.08004 0.291022,0.146515 0.0804,0.0665 0.141357,0.151303 0.184649,0.254894 0.0433,0.103595 0.06624,0.227976 0.06624,0.373314 0,0.139157 -0.02296,0.261692 -0.06624,0.365285 -0.0433,0.103595 -0.104245,0.188874 -0.184649,0.256903 -0.07885,0.06802 -0.176608,0.118524 -0.291022,0.152538 -0.114418,0.034 -0.241103,0.05219 -0.383351,0.05219 -0.06495,0 -0.142219,-0.004 -0.228803,-0.01018 -0.08658,-0.0045 -0.171403,-0.01512 -0.254895,-0.03212 v -1.565457 c 0.08349,-0.01547 0.171238,-0.02549 0.260916,-0.03011 0.09123,-0.0063 0.16788,-0.01007 0.23282,-0.01007 z m 1.216275,0.01806 h 1.075783 v 0.305072 h -0.714512 v 0.335177 h 0.636235 v 0.305074 h -0.636235 v 0.662329 h -0.361271 z m -2.697484,0.291023 c -0.02629,0 -0.05199,4.64e-4 -0.07827,0.0021 -0.02473,0.0014 -0.04767,0.0025 -0.06623,0.004 v 0.463631 h 0.114401 c 0.125241,0 0.219603,-0.01617 0.282996,-0.05017 0.0634,-0.03403 0.09433,-0.0979 0.09433,-0.19067 0,-0.04484 -0.007,-0.08101 -0.02408,-0.110389 -0.01547,-0.02938 -0.03933,-0.05324 -0.07024,-0.07024 -0.02938,-0.01857 -0.06509,-0.02996 -0.108376,-0.03612 -0.0433,-0.0078 -0.09193,-0.01204 -0.144508,-0.01204 z m 1.501278,0 c -0.02473,0 -0.05199,4.64e-4 -0.07827,0.0021 -0.02631,0 -0.05107,8.84e-4 -0.07426,0.004 v 1.01557 c 0.017,0.0014 0.03657,0.0045 0.05821,0.006 h 0.0823 c 0.180901,0 0.314825,-0.04524 0.401411,-0.13648 0.08813,-0.09123 0.132466,-0.218533 0.132466,-0.379332 0,-0.168535 -0.04297,-0.294755 -0.126446,-0.381344 -0.08349,-0.08656 -0.214487,-0.130443 -0.395389,-0.130443 z m 2.799844,2.90421 a 2.4474622,2.4474622 0 0 0 -2.448609,2.446602 2.4474622,2.4474622 0 0 0 2.448609,2.448608 2.4474622,2.4474622 0 0 0 1.386876,-0.431515 l 1.629731,1.62973 a 0.44499313,0.44499313 0 0 0 0.321129,0.13648 0.44499313,0.44499313 0 0 0 0.44356,-0.445566 0.44499313,0.44499313 0 0 0 -0.134474,-0.319124 l -1.631736,-1.631737 a 2.4474622,2.4474622 0 0 0 0.431517,-1.386877 2.4474622,2.4474622 0 0 0 -2.446603,-2.446602 z m 0,0.889127 a 1.557476,1.557476 0 0 1 1.557477,1.557475 1.557476,1.557476 0 0 1 -1.557477,1.557476 1.557476,1.557476 0 0 1 -1.557476,-1.557476 1.557476,1.557476 0 0 1 1.557476,-1.557475 z m -0.776731,1.129974 c -0.05355,0 -0.105652,0.0082 -0.154543,0.0261 -0.0481,0.01785 -0.0912,0.04461 -0.128451,0.08029 -0.03647,0.0357 -0.06457,0.07971 -0.08631,0.132465 -0.02174,0.05199 -0.03412,0.113581 -0.03412,0.182642 0,0.06907 0.01114,0.129877 0.03212,0.182643 0.02095,0.05199 0.04984,0.09477 0.08631,0.130458 0.03646,0.03492 0.07957,0.06244 0.12845,0.08029 0.04888,0.01785 0.101461,0.0261 0.15655,0.0261 0.05665,0 0.107666,-0.0082 0.156552,-0.0261 0.04966,-0.01784 0.09275,-0.04535 0.128451,-0.08029 0.03569,-0.0357 0.06414,-0.07847 0.08429,-0.130458 0.02095,-0.05277 0.03212,-0.113582 0.03212,-0.182643 0,-0.06907 -0.01114,-0.13065 -0.03212,-0.182642 -0.02095,-0.05277 -0.04981,-0.09677 -0.08629,-0.132465 -0.03646,-0.0357 -0.07957,-0.06244 -0.12845,-0.08029 -0.04888,-0.01784 -0.09946,-0.0261 -0.154544,-0.0261 z m 0.929269,0 c -0.05896,0 -0.114141,0.0094 -0.16458,0.0281 -0.05044,0.01864 -0.09399,0.04583 -0.130458,0.08229 -0.03647,0.0357 -0.06536,0.0797 -0.08631,0.132464 -0.02095,0.05199 -0.03011,0.111897 -0.03011,0.17863 0,0.134244 0.03408,0.238151 0.10236,0.311093 0.06905,0.07294 0.167913,0.108378 0.299051,0.108378 0.06131,0 0.116014,-0.0056 0.162573,-0.01807 0.04655,-0.01242 0.08278,-0.02663 0.108377,-0.04217 l -0.05019,-0.146516 c -0.01018,0.0045 -0.0217,0.01061 -0.03412,0.01607 -0.01242,0.0055 -0.02585,0.01139 -0.04217,0.01607 -0.0163,0.004 -0.03525,0.0069 -0.05621,0.01018 -0.02096,0.003 -0.04589,0.004 -0.07225,0.004 -0.04191,0 -0.07689,-0.0069 -0.106377,-0.02007 -0.02949,-0.01397 -0.05363,-0.03291 -0.07225,-0.05621 -0.01786,-0.02327 -0.03161,-0.05049 -0.04014,-0.0823 -0.0078,-0.03258 -0.01018,-0.06711 -0.01018,-0.104374 0,-0.04655 0.0056,-0.08581 0.01807,-0.118415 0.01242,-0.03258 0.02798,-0.0601 0.04816,-0.08029 0.02095,-0.02095 0.04589,-0.03485 0.07225,-0.04416 0.02716,-0.0093 0.05435,-0.01405 0.08229,-0.01405 0.04192,0 0.07781,0.0048 0.110391,0.01405 0.03336,0.0093 0.06348,0.02093 0.08832,0.03412 l 0.05219,-0.146516 c -0.0062,-0.004 -0.01614,-0.01113 -0.03011,-0.01806 -0.01396,-0.007 -0.03124,-0.01186 -0.05219,-0.01807 -0.02095,-0.007 -0.04632,-0.01342 -0.07425,-0.01806 -0.02794,-0.0055 -0.05818,-0.0079 -0.09233,-0.0079 z m 0.614158,0.0079 c -0.03336,0 -0.07173,0.0027 -0.114403,0.0061 -0.04191,0.003 -0.08285,0.0082 -0.122428,0.01607 v 0.794797 h 0.180632 v -0.295039 h 0.09032 c 0.01552,0.01863 0.03064,0.04096 0.04616,0.06423 0.01552,0.0225 0.03066,0.04664 0.04616,0.07225 0.0163,0.02562 0.03343,0.05112 0.04816,0.07827 0.01552,0.02716 0.02941,0.0539 0.04416,0.08029 h 0.20472 c -0.01395,-0.02948 -0.02986,-0.06005 -0.04616,-0.09032 -0.0163,-0.03105 -0.03232,-0.06036 -0.05019,-0.08832 -0.01707,-0.02871 -0.03634,-0.05468 -0.0542,-0.08029 -0.01784,-0.02637 -0.03389,-0.05008 -0.05019,-0.07024 0.04888,-0.02016 0.08679,-0.04736 0.112392,-0.08228 0.02637,-0.0357 0.03813,-0.08184 0.03813,-0.138488 0,-0.0908 -0.03193,-0.158026 -0.09634,-0.200707 -0.0644,-0.04345 -0.155923,-0.06623 -0.276975,-0.06623 z m -1.543427,0.150527 c 0.03336,0 0.06193,0.0076 0.08832,0.02006 0.02716,0.01242 0.05041,0.0289 0.06825,0.05219 0.01863,0.02251 0.03284,0.04971 0.04213,0.08228 0.01018,0.03182 0.01404,0.0688 0.01404,0.108377 0,0.03957 -0.004,0.07455 -0.01404,0.106378 -0.0093,0.03182 -0.02352,0.059 -0.04213,0.08228 -0.01784,0.02251 -0.04108,0.03977 -0.06825,0.05219 -0.02638,0.01242 -0.05494,0.02008 -0.08832,0.02008 -0.03415,0 -0.06593,-0.0076 -0.09232,-0.02008 -0.02639,-0.01242 -0.04761,-0.02967 -0.06624,-0.05219 -0.01784,-0.02327 -0.03206,-0.05047 -0.04214,-0.08228 -0.0093,-0.03182 -0.01404,-0.0668 -0.01404,-0.106378 0,-0.03881 0.0048,-0.07456 0.01404,-0.106377 0.01018,-0.03258 0.0243,-0.05978 0.04214,-0.08229 0.01863,-0.02326 0.03986,-0.04177 0.06624,-0.05417 0.02639,-0.01319 0.05818,-0.02006 0.09232,-0.02006 z m 1.517335,0.006 c 0.01092,-8.03e-4 0.02294,0 0.03612,0 0.05819,0 0.100974,0.007 0.130458,0.02409 0.03026,0.0163 0.04616,0.04471 0.04616,0.08429 0,0.04113 -0.01468,0.07124 -0.04416,0.08832 -0.0295,0.01706 -0.07823,0.02409 -0.146515,0.02409 h -0.05219 v -0.218793 c 0.0093,-8.03e-4 0.02002,-0.0013 0.03011,-0.0021 z" /></svg>
